<svg xmlns="http://www.w3.org/2000/svg" xmlns:xlink="http://www.w3.org/1999/xlink" version="1.1" width="256" height="256" viewBox="0 0 256 256" xml:space="preserve">
<g style="stroke: none; stroke-width: 0; stroke-dasharray: none; stroke-linecap: butt; stroke-linejoin: miter; stroke-miterlimit: 10; fill: none; fill-rule: nonzero; opacity: 1;" transform="translate(1.4065934065934016 1.4065934065934016) scale(2.81 2.81)">
	<path d="M 76.888 12.925 c -8.461 -8.471 -19.712 -13.137 -31.7 -13.142 c -24.7 0 -44.803 20.101 -44.813 44.809 c -0.003 7.898 2.06 15.607 5.982 22.403 L 0 90.217 l 23.756 -6.232 c 6.545 3.57 13.915 5.452 21.415 5.454 h 0.018 c 0.001 0 -0.001 0 0 0 c 24.697 0 44.802 -20.103 44.812 -44.812 C 90.005 32.654 85.349 21.396 76.888 12.925 z" style="stroke: none; stroke-width: 1; stroke-dasharray: none; stroke-linecap: butt; stroke-linejoin: miter; stroke-miterlimit: 10; fill: rgb(255,115,0); fill-rule: evenodd; opacity: 1;" transform=" matrix(1 0 0 1 0 0) " stroke-linecap="round"/>
	<path d="M 26.99 46.223 c -0.56 -0.748 -4.572 -6.071 -4.572 -11.582 s 2.893 -8.22 3.919 -9.341 s 2.24 -1.401 2.986 -1.401 s 1.494 0.007 2.146 0.039 c 0.687 0.035 1.611 -0.261 2.519 1.922 c 0.933 2.242 3.172 7.754 3.453 8.314 c 0.28 0.561 0.466 1.214 0.093 1.961 c -0.373 0.747 -0.56 1.214 -1.119 1.868 s -1.176 1.46 -1.68 1.961 c -0.561 0.559 -1.144 1.165 -0.491 2.285 c 0.653 1.121 2.9 4.788 6.229 7.757 c 4.276 3.815 7.885 4.997 9.004 5.558 c 1.119 0.561 1.772 0.467 2.426 -0.28 c 0.653 -0.748 2.799 -3.27 3.546 -4.39 s 1.493 -0.933 2.519 -0.561 c 1.027 0.374 6.531 3.083 7.651 3.642 c 1.119 0.561 1.866 0.841 2.146 1.308 c 0.28 0.467 0.28 2.709 -0.653 5.324 c -0.933 2.616 -5.407 5.003 -7.558 5.323 c -1.929 0.288 -4.37 0.409 -7.053 -0.444 c -1.626 -0.515 -3.712 -1.205 -6.384 -2.358 C 34.886 58.28 27.551 46.97 26.99 46.223 z" style="stroke: none; stroke-width: 1; stroke-dasharray: none; stroke-linecap: butt; stroke-linejoin: miter; stroke-miterlimit: 10; fill: rgb(255,255,255); fill-rule: evenodd; opacity: 1;" transform=" matrix(1 0 0 1 0 0) " stroke-linecap="round"/>
</g>
</svg>